<!-- <svg xmlns="http://www.w3.org/2000/svg" viewBox="0 0 70 70">
  <path stroke-width="1" d="M85.63623,119.29492l-5.38428-5.38476L94.48486,99.67725,80.25195,85.44385l5.38477-5.38477,14.23291,14.2334,14.23291-14.2334,5.38476,5.38477-14.23339,14.2334,14.23339,14.23291-5.38476,5.38476-14.23291-14.2334Zm14.2334-15.08105,14.23291,14.2334,4.53711-4.53711-14.2334-14.23291,14.2334-14.2334-4.53711-4.53614L99.86963,95.14111,85.63672,80.90771l-4.53613,4.53614L95.3335,99.67725,81.10059,113.91016l4.53564,4.53711Z" transform="translate(-65.59717 -65.40479)"/>
</svg> -->
<svg xmlns="http://www.w3.org/2000/svg" width="38.38704" height="38.38704" viewBox="0 0 38.38704 38.38704">
  <polygon points="38.387 33.427 24.154 19.193 38.387 4.96 33.427 0 19.194 14.233 4.96 0 0 4.96 14.233 19.194 0 33.427 4.96 38.387 19.193 24.154 33.427 38.387 38.387 33.427"/>
</svg>
