<svg xmlns="http://www.w3.org/2000/svg" viewBox="0 0 70 70">
  <g>
    <polygon points="0.6 7.914 0 7.914 0 0 7.915 0 7.915 0.6 0.6 0.6 0.6 7.914"/>
    <polygon points="68.545 7.914 67.946 7.914 67.946 0.6 60.63 0.6 60.63 0 68.545 0 68.545 7.914"/>
    <polygon points="7.915 68.544 0 68.544 0 60.63 0.6 60.63 0.6 67.945 7.915 67.945 7.915 68.544"/>
    <polygon points="68.545 68.544 60.63 68.544 60.63 67.945 67.946 67.945 67.946 60.63 68.545 60.63 68.545 68.544"/>
  </g>
  <path d="M85.63623,119.29492l-5.38428-5.38476L94.48486,99.67725,80.25195,85.44385l5.38477-5.38477,14.23291,14.2334,14.23291-14.2334,5.38476,5.38477-14.23339,14.2334,14.23339,14.23291-5.38476,5.38476-14.23291-14.2334Zm14.2334-15.08105,14.23291,14.2334,4.53711-4.53711-14.2334-14.23291,14.2334-14.2334-4.53711-4.53614L99.86963,95.14111,85.63672,80.90771l-4.53613,4.53614L95.3335,99.67725,81.10059,113.91016l4.53564,4.53711Z" transform="translate(-65.59717 -65.40479)"/>
</svg>
