<?xml version="1.0" encoding="UTF-8"?>
<svg width="12px" height="12px" viewBox="0 0 12 12" version="1.1" xmlns="http://www.w3.org/2000/svg" xmlns:xlink="http://www.w3.org/1999/xlink">
    <!-- Generator: Sketch 41.1 (35376) - http://www.bohemiancoding.com/sketch -->
    <title>close</title>
    <desc>Created with Sketch.</desc>
    <defs></defs>
    <g id="Page-1" stroke="none" stroke-width="1" fill="none" fill-rule="evenodd">
        <g id="close" fill="#B8E986">
            <path d="M3.97521866,5.47521866 C1.83673469,3.33673469 2.22044605e-16,1.5 2.22044605e-16,1.5 C2.22044605e-16,1.5 2.22044605e-16,4.37150316e-16 1.5,2.88588597e-14 C1.71428571,0.214285714 3.67346939,2.17346939 5.8425656,4.3425656 C8.66326531,1.83673469 10.5,2.88588597e-14 10.5,2.88588597e-14 C10.5,2.88588597e-14 12,2.88588597e-14 12,1.5 C11.7857143,1.71428571 9.82653061,3.67346939 7.6574344,5.8425656 C10.1632653,8.66326531 12,10.5 12,10.5 C12,10.5 12,12 10.5,12 C10.2857143,11.7857143 8.32653061,9.82653061 6.1574344,7.6574344 C3.33673469,10.1632653 1.5,12 1.5,12 C1.5,12 2.22044605e-16,12 2.22044605e-16,10.5 C0.214285714,10.2857143 2.17346939,8.32653061 4.3425656,6.1574344 Z" id="Combined-Shape"></path>
        </g>
    </g>
</svg>