<?xml version="1.0" encoding="UTF-8"?>
<svg width="14px" height="14px" viewBox="0 0 14 14" version="1.1" xmlns="http://www.w3.org/2000/svg" xmlns:xlink="http://www.w3.org/1999/xlink">
    <!-- Generator: Sketch 50.2 (55047) - http://www.bohemiancoding.com/sketch -->
    <title>drupal</title>
    <desc>Created with Sketch.</desc>
    <defs></defs>
    <g id="drupal" stroke="none" stroke-width="1" fill="none" fill-rule="evenodd">
        <path d="M6.63408388,8.66807753 C7.8540315,8.66807753 8.84328242,9.65732844 8.84328242,10.8775694 C8.84328242,12.0977685 7.8540315,13.087187 6.63408388,13.087187 C5.41350766,13.087187 4.42425675,12.0977685 4.42425675,10.8775694 C4.42425675,9.65732844 5.41350766,8.66807753 6.63408388,8.66807753 Z M9.3814909,8.24657936 C10.5966611,7.89745416 11.4871797,6.77783133 11.4871797,5.44972237 C11.4871797,5.23373494 11.4622033,5.02357255 11.4178241,4.82082766 C12.876724,6.38684128 13.7456606,8.11427973 12.8123971,10.4090938 C12.1374469,12.0681404 10.6297256,13.4377789 8.80753595,14 C9.79335051,13.3125196 10.4391336,12.1706862 10.4391336,10.8775694 C10.4391336,9.85646936 10.0361583,8.9302462 9.3814909,8.24657936 Z M6.88627875,5.44972237 C6.88627875,4.51645888 7.64328242,3.75983237 8.57667162,3.75983237 C9.51001893,3.75983237 10.2666454,4.51645888 10.2666454,5.44972237 C10.2666454,6.38319539 9.51001893,7.1398638 8.57667162,7.1398638 C7.64328242,7.1398638 6.88627875,6.38319539 6.88627875,5.44972237 Z M3.72328242,13.3278994 C1.09786597,11.7341435 0.199636527,8.68442116 1.19622113,6.21732844 C2.68122898,2.54034573 6.69841075,3.99023573 6.31538299,0 C7.06530442,0.911262441 8.01537251,1.74462022 8.96753595,2.56636983 C8.83980415,2.54918806 8.70939032,2.53938188 8.57667162,2.53938188 C6.96887697,2.53938188 5.66591206,3.84251441 5.66591206,5.44972237 C5.66591206,6.06269251 5.85608493,6.63128339 6.17994035,7.10055526 C4.29266953,7.32496595 2.82878268,8.92978523 2.82878268,10.8775694 C2.82878268,11.811252 3.16508441,12.6657307 3.72328242,13.3278994 Z" fill="#023979"></path>
    </g>
</svg>