<?xml version="1.0" encoding="UTF-8"?>
<svg width="12px" height="12px" viewBox="0 0 12 12" version="1.1" xmlns="http://www.w3.org/2000/svg" xmlns:xlink="http://www.w3.org/1999/xlink">
    <!-- Generator: Sketch 41.2 (35397) - http://www.bohemiancoding.com/sketch -->
    <title>external-link</title>
    <desc>Created with Sketch.</desc>
    <defs></defs>
    <g id="Page-1" stroke="none" stroke-width="1" fill="none" fill-rule="evenodd">
        <g id="external-link">
            <path d="M6.70710678,4 L1,4 L1,11 L8,11 L8,5.29289322 L7,6.29289322 L7,10 L2,10 L2,5 L5.70710678,5 L6.70710678,4 Z" id="Path-6" fill="#023979"></path>
            <path d="M10,2 L10,6.49408095 C10,7.15902877 9.90588961,7.19878282 9.44281725,6.73571047 L8,5.29289322 L5.5,7.79289322 L4.20710678,6.5 L6.70710678,4 L5.26428953,2.55718275 C4.79772155,2.09061477 4.83544012,2 5.50591905,2 L10,2 Z M2.79289322,6.5 L5.5,9.20710678 L8,6.70710678 L8.73571047,7.44281725 C9.83187947,8.53898625 11,8.0455495 11,6.49408095 L11,1 L5.50591905,1 C3.94563087,1 3.45987323,2.16698001 4.55718275,3.26428953 L5.29289322,4 L2.79289322,6.5 Z" id="Path-7" fill="#50E3C2"></path>
        </g>
    </g>
</svg>