<?xml version="1.0" encoding="UTF-8"?>
<svg width="14px" height="14px" viewBox="0 0 14 14" version="1.1" xmlns="http://www.w3.org/2000/svg" xmlns:xlink="http://www.w3.org/1999/xlink">
    <!-- Generator: Sketch 46.2 (44496) - http://www.bohemiancoding.com/sketch -->
    <title>falcon-io</title>
    <desc>Created with Sketch.</desc>
    <defs></defs>
    <g id="Page-1" stroke="none" stroke-width="1" fill="none" fill-rule="evenodd">
        <g id="falcon-io" fill="#023979" fill-rule="nonzero">
            <path d="M13.6899181,11.4308779 C12.3368963,11.1336568 11.1324852,10.2774824 10.1942423,9.03536407 C9.99239806,9.12852294 9.29148845,9.55882821 7.29079077,9.42796217 C4.95516477,9.27491545 3.60214305,7.3984296 3.60214305,7.3984296 C6.26604318,7.70674111 9.01644797,7.45609938 9.42457256,7.41617415 C9.36912085,7.18549504 9.29814266,6.94816172 9.26930777,6.70639227 C8.52403679,6.71970068 5.23020525,6.7529717 3.25168825,6.18736427 C1.03583793,5.55521478 0,3 0,3 C3.89049194,3.20628036 9.65968781,4.18666658 11.5051207,4.56152014 C11.8333948,4.62806219 12.0862546,4.89866654 12.0840365,5.23359486 C12.066292,8.27234854 13.0311517,10.0334948 13.9228152,11.1292206 C14.0714258,11.3155384 14.011538,11.5151645 13.6899181,11.4308779 Z"></path>
        </g>
    </g>
</svg>