<?xml version="1.0" encoding="UTF-8"?>
<svg width="13px" height="19px" viewBox="0 0 13 19" version="1.1" xmlns="http://www.w3.org/2000/svg" xmlns:xlink="http://www.w3.org/1999/xlink">
    <!-- Generator: Sketch 40.3 (33839) - http://www.bohemiancoding.com/sketch -->
    <title>folder-shared</title>
    <desc>Created with Sketch.</desc>
    <defs></defs>
    <g id="Page-1" stroke="none" stroke-width="1" fill="none" fill-rule="evenodd">
        <g id="folder-shared" fill="#F6A623">
            <path d="M13,13.25 C13,13.7291667 12.828125,14.140625 12.484375,14.484375 C12.140625,14.828125 11.7291667,15 11.25,15 L1.75,15 C1.27083333,15 0.859375,14.828125 0.515625,14.484375 C0.171875,14.140625 0,13.7291667 0,13.25 L0,5.75 C0,5.27083333 0.171875,4.859375 0.515625,4.515625 C0.859375,4.171875 1.27083333,4 1.75,4 L4.25,4 C4.72916667,4 5.140625,4.171875 5.484375,4.515625 C5.828125,4.859375 6,5.27083333 6,5.75 L6,6 L11.25,6 C11.7291667,6 12.140625,6.171875 12.484375,6.515625 C12.828125,6.859375 13,7.27083333 13,7.75 L13,13.25 Z M12,7.75 C12,7.54166667 11.9270833,7.36458333 11.78125,7.21875 C11.6354167,7.07291667 11.4583333,7 11.25,7 L5.75,7 C5.54166667,7 5.36458333,6.92708333 5.21875,6.78125 C5.07291667,6.63541667 5,6.45833333 5,6.25 L5,5.75 C5,5.54166667 4.92708333,5.36458333 4.78125,5.21875 C4.63541667,5.07291667 4.45833333,5 4.25,5 L1.75,5 C1.54166667,5 1.36458333,5.07291667 1.21875,5.21875 C1.07291667,5.36458333 1,5.54166667 1,5.75 L1,13.25 C1,13.4583333 1.07291667,13.6354167 1.21875,13.78125 C1.36458333,13.9270833 1.54166667,14 1.75,14 L11.25,14 C11.4583333,14 11.6354167,13.9270833 11.78125,13.78125 C11.9270833,13.6354167 12,13.4583333 12,13.25 L12,7.75 Z" id="Combined-Shape"></path>
            <path d="M7.25,11.4615385 L7.60714286,11.4615385 L7.60714286,10.3076923 L7.96428571,10.3076923 L7.96428571,13 L8.32142857,13 L8.32142857,11.4615385 L8.67857143,11.4615385 L8.67857143,13 L9.03571429,13 L9.03571429,10.3076923 L9.39285714,10.3076923 L9.39285714,11.4615385 L9.75,11.4615385 L9.75,9.92307692 C9.75,9.92307692 9.75,9.53846154 9.39285714,9.53846154 L7.60714286,9.53846154 C7.25,9.53846154 7.25,9.92307692 7.25,9.92307692 L7.25,11.4615385 Z M8.5,9.15384615 C8.79586683,9.15384615 9.03571429,8.89554889 9.03571429,8.57692308 C9.03571429,8.25829726 8.79586683,8 8.5,8 C8.20413317,8 7.96428571,8.25829726 7.96428571,8.57692308 C7.96428571,8.89554889 8.20413317,9.15384615 8.5,9.15384615 Z" id="person"></path>
            <path d="M3.25,11.4615385 L3.60714286,11.4615385 L3.60714286,10.3076923 L3.96428571,10.3076923 L3.96428571,13 L4.32142857,13 L4.32142857,11.4615385 L4.67857143,11.4615385 L4.67857143,13 L5.03571429,13 L5.03571429,10.3076923 L5.39285714,10.3076923 L5.39285714,11.4615385 L5.75,11.4615385 L5.75,9.92307692 C5.75,9.92307692 5.75,9.53846154 5.39285714,9.53846154 L3.60714286,9.53846154 C3.25,9.53846154 3.25,9.92307692 3.25,9.92307692 L3.25,11.4615385 Z M4.5,9.15384615 C4.79586683,9.15384615 5.03571429,8.89554889 5.03571429,8.57692308 C5.03571429,8.25829726 4.79586683,8 4.5,8 C4.20413317,8 3.96428571,8.25829726 3.96428571,8.57692308 C3.96428571,8.89554889 4.20413317,9.15384615 4.5,9.15384615 Z" id="person-copy"></path>
        </g>
    </g>
</svg>