<?xml version="1.0" encoding="UTF-8"?>
<svg width="13px" height="19px" viewBox="0 0 13 19" version="1.1" xmlns="http://www.w3.org/2000/svg" xmlns:xlink="http://www.w3.org/1999/xlink">
    <!-- Generator: Sketch 40.3 (33839) - http://www.bohemiancoding.com/sketch -->
    <title>folder-shared</title>
    <desc>Created with Sketch.</desc>
    <defs></defs>
    <g id="Page-1" stroke="none" stroke-width="1" fill="none" fill-rule="evenodd">
        <g id="folder-shared" fill="#F6A623">
            <path d="M3,15 L1.75,15 C1.27083333,15 0.859375,14.828125 0.515625,14.484375 C0.171875,14.140625 0,13.7291667 0,13.25 L0,5.75 C0,5.27083333 0.171875,4.859375 0.515625,4.515625 C0.859375,4.171875 1.27083333,4 1.75,4 L4.25,4 C4.72916667,4 5.140625,4.171875 5.484375,4.515625 C5.828125,4.859375 6,5.27083333 6,5.75 L6,6 L11.25,6 C11.7291667,6 12.140625,6.171875 12.484375,6.515625 C12.828125,6.859375 13,7.27083333 13,7.75 L13,11.125 L13,9 L12,9 L12,7.75 C12,7.54166667 11.9270833,7.36458333 11.78125,7.21875 C11.6354167,7.07291667 11.4583333,7 11.25,7 L5.75,7 C5.54166667,7 5.36458333,6.92708333 5.21875,6.78125 C5.07291667,6.63541667 5,6.45833333 5,6.25 L5,5.75 C5,5.54166667 4.92708333,5.36458333 4.78125,5.21875 C4.63541667,5.07291667 4.45833333,5 4.25,5 L1.75,5 C1.54166667,5 1.36458333,5.07291667 1.21875,5.21875 C1.07291667,5.36458333 1,5.54166667 1,5.75 L1,13.25 C1,13.4583333 1.07291667,13.6354167 1.21875,13.78125 C1.36458333,13.9270833 1.54166667,14 1.75,14 L3,14 L3,15 Z" id="Combined-Shape"></path>
            <path d="M9.78571429,9.29998779 L13,12.5142735 L9.78571429,15.7285592 L9.78571429,13.7999878 L7.21428571,13.7999878 C5.92857143,13.7999878 5.28571429,15.0857021 5.28571429,16.3714164 C5.28571429,17.6571307 5.28571429,16.3714164 5.28571429,17.6571307 C4.64285714,17.0142735 4,16.6928449 4,15.0857021 C4,13.4785592 5.28571429,11.2285592 7.21428571,11.2285592 L9.78571429,11.2285592 L9.78571429,9.29998779 Z" id="share"></path>
        </g>
    </g>
</svg>