<?xml version="1.0" encoding="UTF-8"?>
<svg width="15px" height="19px" viewBox="0 0 15 19" version="1.1" xmlns="http://www.w3.org/2000/svg" xmlns:xlink="http://www.w3.org/1999/xlink">
    <!-- Generator: Sketch 41 (35326) - http://www.bohemiancoding.com/sketch -->
    <title>folder-shared</title>
    <desc>Created with Sketch.</desc>
    <defs></defs>
    <g id="Page-1" stroke="none" stroke-width="1" fill="none" fill-rule="evenodd">
        <g id="folder-shared" fill="#B8E986">
            <path d="M2,2 C0.723857625,2 1.41680265e-16,2.72385763 0,4 L0,14 C-7.79241456e-16,15.2761424 0.723857625,16 2,16 L13,16 C14.2761424,16 15,15.2761424 15,14 L15,6 C15,4.72385763 14.2761424,4 13,4 L7,4 C7,4 7,2 5,2 L2,2 Z M2,3 L5,3 C5,3 6,3 6,4 C6,5 7,5 7,5 L13,5 C13,5 14,5 14,6 L14,14 C14,14 14,15 13,15 L2,15 C1,15 1,14 1,14 L1,4 C1,3 2,3 2,3 Z" id="Path-4"></path>
            <path d="M5,8 C5.55228475,8 6,7.55228475 6,7 C6,6.44771525 5.55228475,6 5,6 C4.44771525,6 4,6.44771525 4,7 C4,7.55228475 4.44771525,8 5,8 Z M3.47366812,8.5 L6.5007734,8.5 C7.0007734,8.5 7,9 7,9.5 L7,12 L6.25,12 L6.25,9.5 L6,9.5 L6,14 L5.25,14 L5.25,12 L4.75,12 L4.75,14 L4,14 L4,9.5 L3.75,9.5 L3.75,12 L3,12 L3,9.5 C3,9 2.97366812,8.5 3.47366812,8.5 Z" id="body"></path>
            <path d="M10.0002391,8 C10.5525239,8 11.0002391,7.55228475 11.0002391,7 C11.0002391,6.44771525 10.5525239,6 10.0002391,6 C9.44795435,6 9.0002391,6.44771525 9.0002391,7 C9.0002391,7.55228475 9.44795435,8 10.0002391,8 Z M8.47390723,8.5 L11.5010125,8.5 C12.0010125,8.5 12.0002391,9 12.0002391,9.5 L12.0002391,12 L11.2502391,12 L11.2502391,9.5 L11.0002391,9.5 L11.0002391,14 L10.2502391,14 L10.2502391,12 L9.7502391,12 L9.7502391,14 L9.0002391,14 L9.0002391,9.5 L8.7502391,9.5 L8.7502391,12 L8.0002391,12 L8.0002391,9.5 C8.0002391,9 7.97390723,8.5 8.47390723,8.5 Z" id="body-copy"></path>
        </g>
    </g>
</svg>