<?xml version="1.0" encoding="UTF-8"?>
<svg width="15px" height="19px" viewBox="0 0 15 19" version="1.1" xmlns="http://www.w3.org/2000/svg" xmlns:xlink="http://www.w3.org/1999/xlink">
    <!-- Generator: Sketch 41 (35326) - http://www.bohemiancoding.com/sketch -->
    <title>folder-upload</title>
    <desc>Created with Sketch.</desc>
    <defs></defs>
    <g id="Page-1" stroke="none" stroke-width="1" fill="none" fill-rule="evenodd">
        <g id="folder-upload" fill="#B8E986">
            <path d="M5,16 L2,16 C0.723857625,16 -7.79241456e-16,15.2761424 0,14 L0,4 C1.41680265e-16,2.72385763 0.723857625,2 2,2 L5,2 C7,2 7,4 7,4 L13,4 C14.2761424,4 15,4.72385763 15,6 L15,14 C15,15.2761424 14.2761424,16 13,16 L10,16 L10,15 L13,15 C14,15 14,14 14,14 L14,6 C14,5 13,5 13,5 L7,5 C7,5 6,5 6,4 C6,3 5,3 5,3 L2,3 C2,3 1,3 1,4 L1,14 C1,14 1,15 2,15 L5,15 L5,16 Z" id="Combined-Shape"></path>
            <polygon id="arrow" transform="translate(7.500000, 13.250000) rotate(-180.000000) translate(-7.500000, -13.250000) " points="6 8.5 9 8.5 9 13.5 11.5 13.5 7.5 18 3.5 13.5 6 13.5"></polygon>
        </g>
    </g>
</svg>