<?xml version="1.0" encoding="utf-8"?>
<!-- Generator: Adobe Illustrator 23.0.3, SVG Export Plug-In . SVG Version: 6.00 Build 0)  -->
<svg version="1.1" id="Ebene_1" xmlns="http://www.w3.org/2000/svg" xmlns:xlink="http://www.w3.org/1999/xlink" x="0px" y="0px"
	 viewBox="0 0 57.8 34.1" style="enable-background:new 0 0 57.8 34.1;" xml:space="preserve">
<path d="M44.9,27.7V8.6h3.4c0.3,0,0.5,0,0.7,0.1c0.2,0,0.4,0.1,0.5,0.2s0.2,0.2,0.3,0.4c0.1,0.2,0.1,0.4,0.2,0.6l0.3,1.8
	c0.7-1.1,1.5-1.9,2.4-2.6c0.9-0.6,1.8-0.9,2.9-0.9c0.9,0,1.6,0.2,2.1,0.6L56.9,13c0,0.3-0.1,0.4-0.3,0.5c-0.1,0.1-0.3,0.2-0.6,0.2
	c-0.2,0-0.5,0-0.7-0.1c-0.3-0.1-0.6-0.1-1.1-0.1c-1.7,0-3.5,1.2-3.5,3.4c0,1.2,0,10.7,0,10.7H44.9z"/>
<path d="M27.3,8.6c-0.3,0-0.6,0.1-0.9,0.3c-0.3,0.2-0.5,0.4-0.6,0.7L23,17.8c-0.1,0.4-0.7,1.9-0.8,2.3c-0.1-0.4-0.5-1.5-0.7-2.3
	l-3.1-8.3c-0.1-0.3-0.3-0.5-0.5-0.7c-0.2-0.2-0.6-0.3-1-0.3l-10.9,0V7.7c0-0.6,0.1-1.1,0.2-1.6c0.1-0.4,0.3-0.7,0.6-1
	c0.3-0.3,0.6-0.4,1-0.5C8,4.5,8.5,4.5,9,4.5c0.2,0,0.3,0,0.5-0.1c0.2,0,0.3-0.1,0.5-0.2c0.1-0.1,0.2-0.2,0.3-0.3
	c0.1-0.1,0.1-0.3,0.2-0.5l0.1-2.8c-0.4-0.1-0.8-0.2-1.2-0.3C8.9,0.3,8.4,0.3,8,0.3c-1.2,0-2.3,0.2-3.2,0.5C3.8,1.2,3,1.6,2.3,2.3
	C1.7,2.9,1.2,3.7,0.8,4.5c-0.4,0.9-0.5,1.9-0.5,3v1.1v19.1H6V12.5h7.4L19.3,26l-3.7,7.8h4.3c0.5,0,0.9-0.1,1.2-0.3
	c0.2-0.2,0.5-0.5,0.6-0.8L32,8.6H27.3z"/>
<path d="M40.7,0.3v27.4h-5.7V0.3H40.7z"/>
<path d="M27.8,30.6c-0.7,0-1.4,0.5-1.7,1.1l-0.8,2h25.3v-3.2L27.8,30.6z"/>
</svg>
