<svg xmlns="http://www.w3.org/2000/svg" viewBox="0 0 57.11622 33.52067">
  <title>FYLR logo</title>
  <g>
    <path d="M113.035,152.16738V131.96652a8.01993,8.01993,0,0,1,.52611-2.9729,6.29085,6.29085,0,0,1,1.51423-2.2711,6.81175,6.81175,0,0,1,2.40975-1.45891,10.32518,10.32518,0,0,1,4.53319-.43375,9.117,9.117,0,0,1,1.24642.26756l-.11087,2.78843a.9252.9252,0,0,1-.15693.48931,1.1115,1.1115,0,0,1-.34164.31386,1.53772,1.53772,0,0,1-.45227.17545,2.26214,2.26214,0,0,1-.48931.05532,5.57829,5.57829,0,0,0-1.348.14767,2.16241,2.16241,0,0,0-.98788.52635,2.365,2.365,0,0,0-.60019.99714,5.07613,5.07613,0,0,0-.203,1.56028v.86906h11.58582v3.95021H118.75906v15.19688Z" transform="translate(-113.03501 -124.72166)"/>
    <path d="M134.46017,157.13456a1.634,1.634,0,0,1-1.80908,1.10777H128.367l3.693-7.75537-7.64449-17.468H129.475a1.61633,1.61633,0,0,1,1.03394.29558,1.58919,1.58919,0,0,1,.51709.70156l3.13884,8.25394a18.16035,18.16035,0,0,1,.72032,2.28962q.18423-.59068.40646-1.16333.22077-.572.424-1.16309l2.84423-8.21714a1.40191,1.40191,0,0,1,.58191-.71082,1.65863,1.65863,0,0,1,.93183-.28632h4.61628Z" transform="translate(-113.03501 -124.72166)"/>
    <path d="M153.393,124.72166v27.44572h-5.72453V124.72166Z" transform="translate(-113.03501 -124.72166)"/>
    <path d="M157.4472,152.16738V133.019h3.39739a2.91239,2.91239,0,0,1,.71106.07383,1.2526,1.2526,0,0,1,.48.231.98591.98591,0,0,1,.29534.41548,3.79307,3.79307,0,0,1,.17545.62772l.31386,1.79105a9.38541,9.38541,0,0,1,2.3637-2.56669,4.8023,4.8023,0,0,1,2.86178-.94158,3.3005,3.3005,0,0,1,2.1054.62772l-.73884,4.21007a.82076.82076,0,0,1-.29534.54462,1.00263,1.00263,0,0,1-.59117.15718,3.92494,3.92494,0,0,1-.73835-.0831,5.71839,5.71839,0,0,0-1.07122-.08309,3.93133,3.93133,0,0,0-3.54506,2.40025v11.74393Z" transform="translate(-113.03501 -124.72166)"/>
  </g>
</svg>
