<?xml version="1.0" encoding="UTF-8"?>
<svg width="16px" height="13px" viewBox="0 0 16 13" version="1.1" xmlns="http://www.w3.org/2000/svg" xmlns:xlink="http://www.w3.org/1999/xlink">
    <!-- Generator: Sketch 41.1 (35376) - http://www.bohemiancoding.com/sketch -->
    <title>grid</title>
    <desc>Created with Sketch.</desc>
    <defs></defs>
    <g id="Page-1" stroke="none" stroke-width="1" fill="none" fill-rule="evenodd">
        <g id="grid" fill="#023979">
            <path d="M1,1 L5,1 L5,4 L1,4 L1,1 Z M6,1 L10,1 L10,4 L6,4 L6,1 Z M11,1 L15,1 L15,4 L11,4 L11,1 Z M1,5 L5,5 L5,8 L1,8 L1,5 Z M6,5 L10,5 L10,8 L6,8 L6,5 Z M11,5 L15,5 L15,8 L11,8 L11,5 Z M1,9 L5,9 L5,12 L1,12 L1,9 Z M6,9 L10,9 L10,12 L6,12 L6,9 Z M11,9 L15,9 L15,12 L11,12 L11,9 Z"></path>
        </g>
    </g>
</svg>