<?xml version="1.0" encoding="UTF-8"?>
<svg width="14px" height="14px" viewBox="0 0 14 14" version="1.1" xmlns="http://www.w3.org/2000/svg" xmlns:xlink="http://www.w3.org/1999/xlink">
    <!-- Generator: Sketch 43.2 (39069) - http://www.bohemiancoding.com/sketch -->
    <title>hierarchy</title>
    <desc>Created with Sketch.</desc>
    <defs></defs>
    <g id="Page-1" stroke="none" stroke-width="1" fill="none" fill-rule="evenodd">
        <g id="hierarchy" fill="#023979">
            <path d="M3.125,3.125 C3.125,3.05859375 3.09765625,2.99609375 3.05078125,2.94921875 L1.30078125,1.19921875 C1.25390625,1.15234375 1.19140625,1.125 1.125,1.125 C0.98828125,1.125 0.875,1.23828125 0.875,1.375 L0.875,4.875 C0.875,5.01171875 0.98828125,5.125 1.125,5.125 C1.19140625,5.125 1.25390625,5.09765625 1.30078125,5.05078125 L3.05078125,3.30078125 C3.09765625,3.25390625 3.125,3.19140625 3.125,3.125 Z" id="caret-right---FontAwesome-Copy-3" transform="translate(2.000000, 3.125000) rotate(90.000000) translate(-2.000000, -3.125000) "></path>
            <path d="M5.125,11.125 C5.125,11.0585938 5.09765625,10.9960938 5.05078125,10.9492188 L3.30078125,9.19921875 C3.25390625,9.15234375 3.19140625,9.125 3.125,9.125 C2.98828125,9.125 2.875,9.23828125 2.875,9.375 L2.875,12.875 C2.875,13.0117188 2.98828125,13.125 3.125,13.125 C3.19140625,13.125 3.25390625,13.0976562 3.30078125,13.0507812 L5.05078125,11.3007812 C5.09765625,11.2539062 5.125,11.1914062 5.125,11.125 Z" id="caret-right---FontAwesome-Copy-5" transform="translate(4.000000, 11.125000) rotate(90.000000) translate(-4.000000, -11.125000) "></path>
            <path d="M4.125,7.125 C4.125,7.05859375 4.09765625,6.99609375 4.05078125,6.94921875 L2.30078125,5.19921875 C2.25390625,5.15234375 2.19140625,5.125 2.125,5.125 C1.98828125,5.125 1.875,5.23828125 1.875,5.375 L1.875,8.875 C1.875,9.01171875 1.98828125,9.125 2.125,9.125 C2.19140625,9.125 2.25390625,9.09765625 2.30078125,9.05078125 L4.05078125,7.30078125 C4.09765625,7.25390625 4.125,7.19140625 4.125,7.125 Z" id="caret-right---FontAwesome-Copy-6" transform="translate(3.000000, 7.125000) rotate(90.000000) translate(-3.000000, -7.125000) "></path>
            <rect id="Rectangle" x="5" y="2" width="9" height="2"></rect>
            <rect id="Rectangle-Copy" x="6" y="6" width="8" height="2"></rect>
            <rect id="Rectangle-Copy-2" x="7" y="10" width="7" height="2"></rect>
        </g>
    </g>
</svg>