<?xml version="1.0" encoding="UTF-8"?><!DOCTYPE svg PUBLIC "-//W3C//DTD SVG 1.1//EN" "http://www.w3.org/Graphics/SVG/1.1/DTD/svg11.dtd"><svg xmlns="http://www.w3.org/2000/svg"><symbol id="svg-close" viewBox="0 0 13 13"><title>close</title><path d="M7.712 6.498l3.935 4.329.603.663-1.327 1.207-.603-.664L6.5 7.831l-3.82 4.202-.603.664L.75 11.49l.603-.663 3.935-4.329L1.353 2.17.75 1.506 2.077.3l.603.663L6.5 5.165 10.32.963 10.923.3l1.327 1.206-.603.664-3.935 4.328z" fill-rule="evenodd"/></symbol><symbol id="svg-easydb" viewBox="0 0 28 28"><title>easydb</title><g fill-rule="evenodd"><path d="M4 24c-2.494-2.511-4-5.847-4-10 0-3.16 1.515-6.49 4-9v19M17 20V10l5-2v12h-5zm-7 0V10l5-2v12h-5zM9 1v26c1.583.654 3.305 1 5 1 7.78 0 14-6.269 14-14S21.78 0 14 0c-1.696 0-3.42.347-5 1z"/></g></symbol><symbol id="svg-folder-shared" viewBox="0 0 13 19"><title>folder-shared</title><g fill-rule="evenodd"><path d="M3 15H1.75c-.48 0-.89-.172-1.234-.516A1.684 1.684 0 0 1 0 13.25v-7.5c0-.48.172-.89.516-1.234A1.684 1.684 0 0 1 1.75 4h2.5c.48 0 .89.172 1.234.516.344.343.516.755.516 1.234V6h5.25c.48 0 .89.172 1.234.516.344.343.516.755.516 1.234v3.375V9h-1V7.75a.723.723 0 0 0-.219-.531A.723.723 0 0 0 11.25 7h-5.5a.723.723 0 0 1-.531-.219A.723.723 0 0 1 5 6.25v-.5a.723.723 0 0 0-.219-.531A.723.723 0 0 0 4.25 5h-2.5a.723.723 0 0 0-.531.219A.723.723 0 0 0 1 5.75v7.5c0 .208.073.385.219.531A.723.723 0 0 0 1.75 14H3v1z"/><path d="M9.786 9.3L13 12.514 9.786 15.73V13.8H7.214c-1.285 0-1.928 1.286-1.928 2.571v1.286C4.643 17.014 4 16.693 4 15.086c0-1.607 1.286-3.857 3.214-3.857h2.572V9.3z"/></g></symbol></svg>