<?xml version="1.0" encoding="UTF-8"?><!DOCTYPE svg PUBLIC "-//W3C//DTD SVG 1.1//EN" "http://www.w3.org/Graphics/SVG/1.1/DTD/svg11.dtd"><svg xmlns="http://www.w3.org/2000/svg" xmlns:xlink="http://www.w3.org/1999/xlink"><symbol id="svg-arrow-right" viewBox="0 0 31.49 31.49"><g style="enable-background:new 0 0 31.49 31.49"><path style="fill:#1e201d" d="M21.205 5.007a1.112 1.112 0 0 0-1.587 0 1.12 1.12 0 0 0 0 1.571l8.047 8.047H1.111A1.106 1.106 0 0 0 0 15.737c0 .619.492 1.127 1.111 1.127h26.554l-8.047 8.032c-.429.444-.429 1.159 0 1.587a1.112 1.112 0 0 0 1.587 0l9.952-9.952a1.093 1.093 0 0 0 0-1.571l-9.952-9.953z"/></g></symbol><symbol id="svg-asset-failed" viewBox="0 0 38.387 38.387"><path d="M38.387 33.427 24.154 19.193 38.387 4.96 33.427 0 19.194 14.233 4.96 0 0 4.96l14.233 14.234L0 33.427l4.96 4.96 14.233-14.233 14.234 14.233 4.96-4.96z"/></symbol><symbol id="svg-close" viewBox="0 0 12 12"><path d="M3.975 5.475 0 1.5S0 0 1.5 0l4.343 4.343C8.663 1.837 10.5 0 10.5 0S12 0 12 1.5L7.657 5.843C10.163 8.663 12 10.5 12 10.5s0 1.5-1.5 1.5L6.157 7.657C3.337 10.163 1.5 12 1.5 12S0 12 0 10.5l4.343-4.343Z" fill-rule="evenodd"/></symbol><symbol id="svg-drupal" viewBox="0 0 14 14"><path d="M6.634 8.668a2.21 2.21 0 1 1 0 4.419 2.21 2.21 0 0 1 0-4.419Zm2.747-.421a2.912 2.912 0 0 0 2.037-3.426c1.459 1.566 2.328 3.293 1.394 5.588-.675 1.66-2.182 3.029-4.004 3.591a3.8 3.8 0 0 0 .573-5.753ZM6.886 5.45a1.69 1.69 0 1 1 3.38 0 1.69 1.69 0 0 1-3.38 0Zm-3.163 7.878C1.098 11.734.2 8.684 1.196 6.218 2.681 2.54 6.698 3.99 6.316 0c.75.911 1.7 1.745 2.652 2.566A2.91 2.91 0 0 0 6.18 7.1a3.805 3.805 0 0 0-2.457 6.228Z" fill-rule="evenodd"/></symbol><symbol id="svg-easydb" viewBox="0 0 24 24"><g fill-rule="evenodd"><path d="M3 21c-1.87-2.38-3-5.539-3-10 0-2.468 1.136-5.623 3-8v18" fill="currentColor"/><path d="M19 17h-4V8.38L19 7v10Zm-6 0H9V8.38L13 7v10ZM11.3 0A11.42 11.42 0 0 0 7 .837l.002 22.328A11.43 11.43 0 0 0 11.3 24C17.762 24 23 18.627 23 12S17.762 0 11.3 0Z"/></g></symbol><symbol id="svg-external-link" viewBox="0 0 12 12"><g fill-rule="evenodd"><path d="M6.707 4H1v7h7V5.293l-1 1V10H2V5h3.707l1-1Z"/><path d="M10 2v4.494c0 .665-.094.705-.557.242L8 5.293l-2.5 2.5L4.207 6.5l2.5-2.5-1.443-1.443C4.798 2.091 4.835 2 5.506 2H10ZM2.793 6.5 5.5 9.207l2.5-2.5.736.736C9.832 8.539 11 8.046 11 6.494V1H5.506c-1.56 0-2.046 1.167-.949 2.264L5.293 4l-2.5 2.5Z" fill="currentColor"/></g></symbol><symbol id="svg-falcon-io" viewBox="0 0 14 14"><path d="M13.69 11.43c-1.353-.296-2.558-1.153-3.496-2.395-.202.094-.903.524-2.903.393-2.336-.153-3.689-2.03-3.689-2.03 2.664.309 5.414.058 5.823.018-.056-.23-.127-.468-.156-.71-.745.014-4.039.047-6.017-.519C1.036 5.555 0 3 0 3c3.89.206 9.66 1.187 11.505 1.562.328.066.581.337.579.672-.018 3.038.947 4.8 1.839 5.895.148.187.089.386-.233.302Z" fill-rule="nonzero"/></symbol><symbol id="svg-folder-shared-upload" viewBox="0 0 15 19"><g fill-rule="evenodd"><path d="M5 16H2c-1.276 0-2-.724-2-2V4c0-1.276.724-2 2-2h3c2 0 2 2 2 2h6c1.276 0 2 .724 2 2v8c0 1.276-.724 2-2 2h-3v-1h3c1 0 1-1 1-1V6c0-1-1-1-1-1H7S6 5 6 4 5 3 5 3H2S1 3 1 4v10s0 1 1 1h3v1Z"/><path d="M5.333 8.5h-1.86c-.5 0-.473.5-.473 1v1.692l.75-.865V9.5H4v.538L5.333 8.5Zm4.334 0H11.5c.5 0 .5.5.5 1v1.693l-.75-.866V9.5H11v.539L9.666 8.5ZM5 8a1 1 0 1 0 0-2 1 1 0 0 0 0 2Zm5 0a1 1 0 1 0 0-2 1 1 0 0 0 0 2ZM9 18H6v-5H3.5l4-4.5 4 4.5H9z"/></g></symbol><symbol id="svg-folder-shared" viewBox="0 0 15 19"><g fill-rule="evenodd"><path d="M2 2C.724 2 0 2.724 0 4v10c0 1.276.724 2 2 2h11c1.276 0 2-.724 2-2V6c0-1.276-.724-2-2-2H7s0-2-2-2H2Zm0 1h3s1 0 1 1 1 1 1 1h6s1 0 1 1v8s0 1-1 1H2c-1 0-1-1-1-1V4c0-1 1-1 1-1Z"/><path d="M5 8a1 1 0 1 0 0-2 1 1 0 0 0 0 2Zm-1.526.5H6.5C7 8.5 7 9 7 9.5V12h-.75V9.5H6V14h-.75v-2h-.5v2H4V9.5h-.25V12H3V9.5c0-.5-.026-1 .474-1ZM10 8a1 1 0 1 0 0-2 1 1 0 0 0 0 2Zm-1.526.5H11.5c.5 0 .5.5.5 1V12h-.75V9.5H11V14h-.75v-2h-.5v2H9V9.5h-.25V12H8V9.5c0-.5-.027-1 .473-1Z"/></g></symbol><symbol id="svg-folder-upload" viewBox="0 0 15 19"><g fill-rule="evenodd"><path d="M5 16H2c-1.276 0-2-.724-2-2V4c0-1.276.724-2 2-2h3c2 0 2 2 2 2h6c1.276 0 2 .724 2 2v8c0 1.276-.724 2-2 2h-3v-1h3c1 0 1-1 1-1V6c0-1-1-1-1-1H7S6 5 6 4 5 3 5 3H2S1 3 1 4v10s0 1 1 1h3v1Z"/><path d="M9 18H6v-5H3.5l4-4.5 4 4.5H9z"/></g></symbol><symbol id="svg-folder" viewBox="0 0 15 19"><path d="M2 2C.724 2 0 2.724 0 4v10c0 1.276.724 2 2 2h11c1.276 0 2-.724 2-2V6c0-1.276-.724-2-2-2H7s0-2-2-2H2Zm0 1h3s1 0 1 1 1 1 1 1h6s1 0 1 1v8s0 1-1 1H2c-1 0-1-1-1-1V4c0-1 1-1 1-1Z" fill-rule="evenodd"/></symbol><symbol id="svg-fylr-logo" viewBox="0 0 57.8 34.1"><g style="enable-background:new 0 0 57.8 34.1"><path d="M44.9 27.7V8.6h3.4c.3 0 .5 0 .7.1.2 0 .4.1.5.2s.2.2.3.4c.1.2.1.4.2.6l.3 1.8c.7-1.1 1.5-1.9 2.4-2.6.9-.6 1.8-.9 2.9-.9.9 0 1.6.2 2.1.6l-.8 4.2c0 .3-.1.4-.3.5-.1.1-.3.2-.6.2-.2 0-.5 0-.7-.1-.3-.1-.6-.1-1.1-.1-1.7 0-3.5 1.2-3.5 3.4v10.7h-5.8zM27.3 8.6c-.3 0-.6.1-.9.3-.3.2-.5.4-.6.7L23 17.8c-.1.4-.7 1.9-.8 2.3-.1-.4-.5-1.5-.7-2.3l-3.1-8.3c-.1-.3-.3-.5-.5-.7-.2-.2-.6-.3-1-.3H6v-.8c0-.6.1-1.1.2-1.6.1-.4.3-.7.6-1 .3-.3.6-.4 1-.5.2-.1.7-.1 1.2-.1.2 0 .3 0 .5-.1.2 0 .3-.1.5-.2l.3-.3c.1-.1.1-.3.2-.5l.1-2.8L9.4.3H8C6.8.3 5.7.5 4.8.8c-1 .4-1.8.8-2.5 1.5-.6.6-1.1 1.4-1.5 2.2-.4.9-.5 1.9-.5 3V27.7H6V12.5h7.4L19.3 26l-3.7 7.8h4.3c.5 0 .9-.1 1.2-.3.2-.2.5-.5.6-.8L32 8.6h-4.7zM40.7.3v27.4H35V.3h5.7zM27.8 30.6c-.7 0-1.4.5-1.7 1.1l-.8 2h25.3v-3.2l-22.8.1z"/></g></symbol><symbol id="svg-grid" viewBox="0 0 16 13"><path d="M1 1h4v3H1V1Zm5 0h4v3H6V1Zm5 0h4v3h-4V1ZM1 5h4v3H1V5Zm5 0h4v3H6V5Zm5 0h4v3h-4V5ZM1 9h4v3H1V9Zm5 0h4v3H6V9Zm5 0h4v3h-4V9Z" fill-rule="evenodd"/></symbol><symbol id="svg-hierarchy" viewBox="0 0 14 14"><g fill-rule="evenodd"><path d="M2 4.25a.249.249 0 0 0 .176-.074l1.75-1.75A.249.249 0 0 0 4 2.25.252.252 0 0 0 3.75 2H.25a.252.252 0 0 0-.25.25c0 .066.027.129.074.176l1.75 1.75c.047.047.11.074.176.074ZM4 12.25a.249.249 0 0 0 .176-.074l1.75-1.75A.249.249 0 0 0 6 10.25a.252.252 0 0 0-.25-.25h-3.5a.252.252 0 0 0-.25.25c0 .066.027.129.074.176l1.75 1.75c.047.047.11.074.176.074ZM3 8.25a.249.249 0 0 0 .176-.074l1.75-1.75A.249.249 0 0 0 5 6.25.252.252 0 0 0 4.75 6h-3.5a.252.252 0 0 0-.25.25c0 .066.027.129.074.176l1.75 1.75c.047.047.11.074.176.074ZM5 2h9v2H5zM6 6h8v2H6zM7 10h7v2H7z"/></g></symbol><symbol id="svg-info-circle-ng" viewBox="0 0 14 14"><g fill-rule="evenodd"><path d="M7 13A6 6 0 1 0 7 1a6 6 0 0 0 0 12Zm0 1A7 7 0 1 1 7 0a7 7 0 0 1 0 14Z" fill-rule="nonzero"/><path d="M8 6v5H6V6h2Zm0-3v2H6V3h2Z"/></g></symbol><symbol id="svg-info-circle" viewBox="0 0 24 24"><path d="M12 24c6.627 0 12-5.373 12-12S18.627 0 12 0 0 5.373 0 12s5.373 12 12 12zm1-6h-2v-8h2v8zM12 5.75a1.25 1.25 0 1 1 0 2.5 1.25 1.25 0 0 1 0-2.5z"/></symbol><symbol id="svg-inherit" viewBox="-110 -59.7 345.5 345.5"><g style="enable-background:new -110 -59.7 345.5 345.5"><path d="M57 28.4-98.7 184.1c-3.7 3.7-3.7 9.5 0 13.2s9.5 3.7 13.2 0L63.6 48.2l149.1 149.1c3.7 3.7 9.5 3.7 13.2 0 1.8-1.8 2.8-4.2 2.8-6.6 0-2.4-.9-4.8-2.8-6.6L70.2 28.4c-3.6-3.6-9.6-3.6-13.2 0z"/></g></symbol><symbol id="svg-merge-icon" viewBox="-27 -143.2 512 512"><g style="enable-background:new -27 -143.2 512 512"><path d="M363.3 200.7c-6.2-15-15.1-28.3-26.6-39.8l-57.6-57.6c-4.6-4.6-8.2-10-10.7-16.1-2.5-6-3.8-12.4-3.8-18.9V-4.1h69.8L228-110.5 121.7-4.1h69.8v72.4c0 6.5-1.3 12.9-3.8 18.9-2.5 6-6.1 11.5-10.7 16.1l-57.6 57.6c-11.5 11.5-20.4 24.8-26.6 39.8-6.2 15-9.3 30.8-9.3 47V320h73.2v-72.4c0-6.5 1.3-12.9 3.8-19 2.5-6 6.1-11.4 10.7-16l57-56.9 56.9 56.9c4.6 4.6 8.2 10 10.7 16s3.8 12.4 3.8 19V320h73.2v-72.4c-.2-16.2-3.3-32-9.5-46.9z" style="fill:#39f"/></g></symbol><symbol id="svg-multiple" viewBox="0 0 10 12"><g fill-rule="evenodd"><path d="M8 8h2V0H4v2h1V1h4v6H8v1Z"/><path d="M6 10h2V2H2v2h1V3h4v6H6v1Z"/><path d="M1 11h4V5H1v6ZM0 4h6v8H0V4Z"/></g></symbol><symbol id="svg-popup" viewBox="0 0 15 14"><g fill-rule="evenodd"><path d="M4 4H1v9h10v-3h-1v2H2V5h2V4Z"/><path d="M4 1h10v9H4V1Zm1 8h8V3H5v6Z"/></g></symbol><symbol id="svg-presentation-play" viewBox="0 0 15 14"><g fill-rule="evenodd"><path d="M1 1h13v2H1z"/><path d="M2 2h1v8H2z"/><path d="M2 9h11v1H2z"/><path d="M7 9h1v2.5H7z"/><path d="M6.086 12.208 7.5 10.794l.707.707-1.414 1.414z"/><path d="m7.5 10.794 1.414 1.414-.707.707L6.793 11.5zM12 2h1v8h-1zM6.5 4l3.25 2L6.5 8z"/></g></symbol><symbol id="svg-presentation" viewBox="0 0 15 14"><g fill-rule="evenodd"><path d="M1 1h13v2H1z"/><path d="M2 2h1v8H2z"/><path d="M2 9h11v1H2z"/><path d="M7 9h1v2.5H7z"/><path d="M6.086 12.208 7.5 10.794l.707.707-1.414 1.414z"/><path d="m7.5 10.794 1.414 1.414-.707.707L6.793 11.5zM12 2h1v8h-1z"/></g></symbol><symbol id="svg-remove-icon" viewBox="-27 -143.2 512 512"><g style="enable-background:new -27 -143.2 512 512"><style>.st0{fill:#c33}</style><path class="st0" d="M229-143.2c-141.2 0-256 114.8-256 256s114.8 256 256 256 256-114.8 256-256-114.8-256-256-256zm0 468.1c-117 0-212.1-95.2-212.1-212.1S112-99.3 229-99.3 441.1-4.2 441.1 112.8 346 324.9 229 324.9z"/><path class="st0" d="M328.1 13.7c-8.6-8.6-22.5-8.6-31 0l-68 68-68-68c-8.6-8.6-22.5-8.6-31 0s-8.6 22.5 0 31l68 68-68 68c-8.6 8.6-8.6 22.5 0 31 4.3 4.3 9.9 6.4 15.5 6.4s11.2-2.1 15.5-6.4l68-68 68 68c4.3 4.3 9.9 6.4 15.5 6.4s11.2-2.1 15.5-6.4c8.6-8.6 8.6-22.5 0-31l-68-68 68-68c8.5-8.5 8.5-22.4 0-31z"/></g></symbol><symbol id="svg-reset" viewBox="0 0 12 12"><path d="M4 0v6L0 3l4-3Zm0 2h5c3 0 3 3 3 3v3c0 3-3 3-3 3H2V9h7c1 0 1-1 1-1V5c0-1-1-1-1-1H4V2Z" fill-rule="evenodd"/></symbol><symbol id="svg-rows" viewBox="0 0 16 13"><path d="M5 1h10v3H5V1ZM1 1h3v3H1V1Zm0 4h3v3H1V5Zm0 4h3v3H1V9Zm4-4h10v3H5V5Zm0 4h10v3H5V9Z" fill-rule="evenodd"/></symbol><symbol id="svg-ruler" viewBox="0 0 256 512"><!--!Font Awesome Free 6.7.2 by @fontawesome - https://fontawesome.com License - https://fontawesome.com/license/free Copyright 2025 Fonticons, Inc.--><path d="M0 48C0 21.5 21.5 0 48 0h160c26.5 0 48 21.5 48 48v48h-80c-8.8 0-16 7.2-16 16s7.2 16 16 16h80v64h-80c-8.8 0-16 7.2-16 16s7.2 16 16 16h80v64h-80c-8.8 0-16 7.2-16 16s7.2 16 16 16h80v64h-80c-8.8 0-16 7.2-16 16s7.2 16 16 16h80v48c0 26.5-21.5 48-48 48H48c-26.5 0-48-21.5-48-48V48z"/></symbol><symbol id="svg-search-shared" viewBox="0 0 17 16"><path d="M11.733 12.562 9.26 10.088c.24-.347.419-.715.562-1.094H7.775c-.12.175-.257.34-.416.5-.632.631-1.393.947-2.282.947s-1.65-.316-2.283-.948-.948-1.393-.948-2.282c0-.85.297-1.58.875-2.195V2.74c-.46.24-.884.52-1.24.876a5.077 5.077 0 0 0-1.08 1.622C.132 5.866 0 6.523 0 7.211s.133 1.345.4 1.972a5.077 5.077 0 0 0 1.082 1.623c.454.454.995.815 1.623 1.081.627.267 1.284.4 1.972.4a4.938 4.938 0 0 0 2.877-.894l2.474 2.467c.173.182.39.274.649.274.25 0 .466-.092.649-.274a.887.887 0 0 0 .274-.65.884.884 0 0 0-.267-.648Z"/><g fill-rule="evenodd"><path d="M5.729 2a1 1 0 1 0 0-2 1 1 0 0 0 0 2Zm-1.527.5H7.23c.5 0 .499.5.499 1V6h-.75V3.5h-.25V8h-.75V6h-.5v2h-.75V3.5h-.25V6h-.75V3.5c0-.5-.027-1 .473-1ZM10.73 2a1 1 0 1 0-.001-2 1 1 0 0 0 0 2Zm-1.527.5h3.027c.5 0 .5.5.5 1V6h-.75V3.5h-.25V8h-.75V6h-.5v2h-.75V3.5h-.25V6h-.75V3.5c0-.5-.027-1 .473-1Z"/></g></symbol><symbol id="svg-select-all" viewBox="0 0 15 15"><g fill-rule="evenodd"><path d="M3 0h1v1H3V0Zm2 0h1v1H5V0Zm2 0h1v1H7V0Zm2 0h1v1H9V0Zm4 0h2v2h-2V0Zm-2 0h1v1h-1V0ZM0 0h2v2H0V0Zm0 13h2v2H0v-2Zm3 1h1v1H3v-1Zm4 0h1v1H7v-1Zm-2 0h1v1H5v-1Zm4 0h1v1H9v-1Zm2 0h1v1h-1v-1Zm2-1h2v2h-2v-2Zm1-10h1v1h-1V3Zm0 2h1v1h-1V5Zm0 2h1v1h-1V7Zm0 2h1v1h-1V9Zm0 2h1v1h-1v-1ZM0 3h1v1H0V3Zm0 2h1v1H0V5Zm0 2h1v1H0V7Zm0 2h1v1H0V9Zm0 2h1v1H0v-1ZM3 3h4v4H3zM8 3h4v4H8zM8 8h4v4H8zM3 8h4v4H3z"/></g></symbol><symbol id="svg-select-pages" viewBox="0 0 15 15"><g fill-rule="evenodd"><path d="M3 0h1v1H3V0Zm2 0h1v1H5V0Zm2 0h1v1H7V0Zm2 0h1v1H9V0Zm4 0h2v2h-2V0Zm-2 0h1v1h-1V0ZM0 0h2v2H0V0Zm0 13h2v2H0v-2Zm3 1h1v1H3v-1Zm4 0h1v1H7v-1Zm-2 0h1v1H5v-1Zm4 0h1v1H9v-1Zm2 0h1v1h-1v-1Zm2-1h2v2h-2v-2Zm1-10h1v1h-1V3Zm0 2h1v1h-1V5Zm0 2h1v1h-1V7Zm0 2h1v1h-1V9Zm0 2h1v1h-1v-1ZM0 3h1v1H0V3Zm0 2h1v1H0V5Zm0 2h1v1H0V7Zm0 2h1v1H0V9Zm0 2h1v1H0v-1Z"/><path d="M10 5h2v7H5v-2h1v1h5V6h-1V5Z" fill-rule="nonzero"/><path d="M3 3h7v7H3V3Zm1 1v5h5V4H4Z" fill-rule="nonzero"/></g></symbol><symbol id="svg-spinner" viewBox="0 0 14 14"><path d="M4.11 10.89c0-.554-.446-1-1-1-.547 0-1 .446-1 1 0 .547.453 1 1 1 .554 0 1-.453 1-1ZM8 12.5c0-.555-.445-1-1-1-.555 0-1 .445-1 1 0 .555.445 1 1 1 .555 0 1-.445 1-1ZM2.5 7c0-.555-.445-1-1-1-.555 0-1 .445-1 1 0 .555.445 1 1 1 .555 0 1-.445 1-1Zm9.39 3.89c0-.554-.452-1-1-1-.554 0-1 .446-1 1 0 .547.446 1 1 1 .548 0 1-.453 1-1ZM4.36 3.11c0-.688-.563-1.25-1.25-1.25-.688 0-1.25.562-1.25 1.25 0 .687.562 1.25 1.25 1.25.687 0 1.25-.563 1.25-1.25ZM13.5 7c0-.555-.445-1-1-1-.555 0-1 .445-1 1 0 .555.445 1 1 1 .555 0 1-.445 1-1Zm-5-5.5a1.5 1.5 0 1 0-3 0 1.5 1.5 0 0 0 3 0Zm4.14 1.61c0-.962-.788-1.75-1.75-1.75-.968 0-1.75.788-1.75 1.75 0 .968.782 1.75 1.75 1.75.962 0 1.75-.782 1.75-1.75Z" fill-rule="evenodd"/></symbol><symbol id="svg-table" viewBox="0 0 15 13"><path d="M6 6v2h3V6H6Zm0-1V3H5v2H2v1h3v2H2v1h3v2h1V9h3v2h1V9h3v3h1V3h-1v2h-3V3H9v2H6Zm7 1v2h-3V6h3ZM1 3h1v9H1V3Zm1 8h11v1H2v-1ZM1 1h13v2H1V1Z" fill-rule="evenodd"/></symbol><symbol id="svg-tag-o" viewBox="0 0 13 13"><g fill-rule="evenodd"><path d="M1.065 1.258c.02-.064.027 2.825.027 3.112 0 .5.13 1.086.356 1.324.523.54 6.142 6.155 6.343 6.343l-.072-.061a.388.388 0 0 0-.048-.034.24.24 0 0 0 .058.017.197.197 0 0 0-.062.03c.17-.14 3.325-3.254 3.692-3.632.195-.202.573-.611.573-.611-.036.054-.13-.166-.215-.256-.167-.175-5.84-5.86-5.84-5.86a6.77 6.77 0 0 0-.48-.304c-.225-.117-.417-.179-.481-.179-.26 0-.686-.007-1.847-.027-1.133-.02-1.572-.028-1.813-.028a.978.978 0 0 0-.191.166ZM4.916.054c.603 0 1.45.544 1.693.762.195.217 5.96 5.87 6.227 6.257.28.374.143 1.026 0 1.25-.13.265-4.038 4.097-4.479 4.462-.488.396-1.116.152-1.31 0-.189-.174-5.79-5.746-6.392-6.365C.055 5.789 0 4.675 0 4.352V1.088C0 .652.601 0 1.256 0c.602 0 3.061.054 3.66.054Z"/><path d="M3.436 3a.436.436 0 1 0-.872 0 .436.436 0 0 0 .872 0ZM2 3a1 1 0 1 1 2 0 1 1 0 0 1-2 0Z"/></g></symbol><symbol id="svg-trash" viewBox="0 0 13 13"><g fill-rule="evenodd"><path d="M1 11.5c0 .634.3 1.084.776 1.322.27.135.528.178.724.178h8c.634 0 1.084-.3 1.322-.776.135-.27.178-.528.178-.724V3h.5V2H.5v1H1v8.5ZM2 3h9v8.5c0 .054-.02.17-.072.276-.075.15-.187.224-.428.224h-8a.702.702 0 0 1-.276-.072C2.074 11.853 2 11.74 2 11.5V3Z"/><path d="M4.61 1.621C4.717 1.194 4.862 1 5 1h3c.138 0 .283.194.39.621.032.127.055.256.073.379H4.537c.018-.123.041-.252.073-.379ZM3.5 2.5V3h6v-.5a4.84 4.84 0 0 0-.14-1.121C9.154.556 8.737 0 8 0H5c-.737 0-1.154.556-1.36 1.379a4.84 4.84 0 0 0-.123.767A4.505 4.505 0 0 0 3.5 2.5ZM7 4v7h1V4H7Zm2 0v7h1V4H9ZM5 4v7h1V4H5ZM3 4v7h1V4H3Z"/></g></symbol><symbol id="svg-typo3" viewBox="0 0 14 14"><path d="M10.456 9.648C8.896 12.15 7 14 5.876 14 3.446 14 0 6.674 0 3.446c0-.508.109-.907.29-1.16C1.125 1.27 3.736.47 5.912.217c-.254.217-.435.471-.435 1.233 0 2.067 2.611 8.28 4.389 8.28.216 0 .382-.022.59-.083ZM9.32 0c2.249 0 4.498.363 4.498 1.632 0 2.575-1.632 5.695-2.466 5.695-1.487 0-3.337-4.135-3.337-6.202C8.016.182 8.379 0 9.32 0Z" fill-rule="nonzero"/></symbol></svg>