<?xml version="1.0" encoding="UTF-8"?><!DOCTYPE svg PUBLIC "-//W3C//DTD SVG 1.1//EN" "http://www.w3.org/Graphics/SVG/1.1/DTD/svg11.dtd"><svg xmlns="http://www.w3.org/2000/svg"><symbol id="svg-close" viewBox="0 0 13 13"><title>close</title><path d="M7.712 6.498l3.935 4.329.603.663-1.327 1.207-.603-.664L6.5 7.831l-3.82 4.202-.603.664L.75 11.49l.603-.663 3.935-4.329L1.353 2.17.75 1.506 2.077.3l.603.663L6.5 5.165 10.32.963 10.923.3l1.327 1.206-.603.664-3.935 4.328z" fill-rule="evenodd"/></symbol><symbol id="svg-easydb" viewBox="0 0 24 24"><title>easydb</title><g fill-rule="evenodd"><path d="M3 21c-1.87-2.38-3-5.539-3-10 0-2.468 1.136-5.623 3-8v18" fill="currentColor"/><path d="M19 17h-4V8.38L19 7v10zm-6 0H9V8.38L13 7v10zM11.3 0A11.42 11.42 0 0 0 7 .837l.002 22.328A11.43 11.43 0 0 0 11.3 24C17.762 24 23 18.627 23 12S17.762 0 11.3 0z"/></g></symbol><symbol id="svg-folder-shared" viewBox="0 0 13 19"><title>folder-shared</title><g fill-rule="evenodd"><path d="M3 15H1.75c-.48 0-.89-.172-1.234-.516A1.684 1.684 0 0 1 0 13.25v-7.5c0-.48.172-.89.516-1.234A1.684 1.684 0 0 1 1.75 4h2.5c.48 0 .89.172 1.234.516.344.343.516.755.516 1.234V6h5.25c.48 0 .89.172 1.234.516.344.343.516.755.516 1.234v3.375V9h-1V7.75a.723.723 0 0 0-.219-.531A.723.723 0 0 0 11.25 7h-5.5a.723.723 0 0 1-.531-.219A.723.723 0 0 1 5 6.25v-.5a.723.723 0 0 0-.219-.531A.723.723 0 0 0 4.25 5h-2.5a.723.723 0 0 0-.531.219A.723.723 0 0 0 1 5.75v7.5c0 .208.073.385.219.531A.723.723 0 0 0 1.75 14H3v1z"/><path d="M9.786 9.3L13 12.514 9.786 15.73V13.8H7.214c-1.285 0-1.928 1.286-1.928 2.571v1.286C4.643 17.014 4 16.693 4 15.086c0-1.607 1.286-3.857 3.214-3.857h2.572V9.3z"/></g></symbol><symbol id="svg-tag-o" viewBox="0 0 13 13"><title>tag-o</title><g fill-rule="evenodd"><path d="M1.065 1.258c.02-.064.027 2.825.027 3.112 0 .5.13 1.086.356 1.324.523.54 6.142 6.155 6.343 6.343l-.072-.061a.388.388 0 0 0-.048-.034.24.24 0 0 0 .058.017.197.197 0 0 0-.062.03c.17-.14 3.325-3.254 3.692-3.632.195-.202.573-.611.573-.611-.036.054-.13-.166-.215-.256-.167-.175-5.84-5.86-5.84-5.86a6.77 6.77 0 0 0-.48-.304c-.225-.117-.417-.179-.481-.179-.26 0-.686-.007-1.847-.027-1.133-.02-1.572-.028-1.813-.028a.978.978 0 0 0-.191.166zM4.916.054c.603 0 1.45.544 1.693.762.195.217 5.96 5.87 6.227 6.257.28.374.143 1.026 0 1.25-.13.265-4.038 4.097-4.479 4.462-.488.396-1.116.152-1.31 0-.189-.174-5.79-5.746-6.392-6.365C.055 5.789 0 4.675 0 4.352V1.088C0 .652.601 0 1.256 0c.602 0 3.061.054 3.66.054z"/><path d="M3.436 3a.436.436 0 1 0-.872 0 .436.436 0 0 0 .872 0zM2 3a1 1 0 1 1 2 0 1 1 0 0 1-2 0z"/></g></symbol></svg>