
<?xml version="1.0" encoding="UTF-8"?><!DOCTYPE svg PUBLIC "-//W3C//DTD SVG 1.1//EN" "http://www.w3.org/Graphics/SVG/1.1/DTD/svg11.dtd"><svg xmlns="http://www.w3.org/2000/svg"><symbol id="svg-close" viewBox="0 0 12 12"><title>close</title><path d="M3.975 5.475L0 1.5S0 0 1.5 0l4.343 4.343C8.663 1.837 10.5 0 10.5 0S12 0 12 1.5L7.657 5.843C10.163 8.663 12 10.5 12 10.5s0 1.5-1.5 1.5L6.157 7.657C3.337 10.163 1.5 12 1.5 12S0 12 0 10.5l4.343-4.343z" fill-rule="evenodd"/></symbol><symbol id="svg-easydb" viewBox="0 0 24 24"><title>easydb</title><g fill-rule="evenodd"><path d="M3 21c-1.87-2.38-3-5.539-3-10 0-2.468 1.136-5.623 3-8v18" fill="currentColor"/><path d="M19 17h-4V8.38L19 7v10zm-6 0H9V8.38L13 7v10zM11.3 0A11.42 11.42 0 0 0 7 .837l.002 22.328A11.43 11.43 0 0 0 11.3 24C17.762 24 23 18.627 23 12S17.762 0 11.3 0z"/></g></symbol><symbol id="svg-external-link" viewBox="0 0 12 12"><title>external-link</title><g fill-rule="evenodd"><path d="M6.707 4H1v7h7V5.293l-1 1V10H2V5h3.707l1-1z"/><path d="M10 2v4.494c0 .665-.094.705-.557.242L8 5.293l-2.5 2.5L4.207 6.5l2.5-2.5-1.443-1.443C4.798 2.091 4.835 2 5.506 2H10zM2.793 6.5L5.5 9.207l2.5-2.5.736.736C9.832 8.539 11 8.046 11 6.494V1H5.506c-1.56 0-2.046 1.167-.949 2.264L5.293 4l-2.5 2.5z" fill="currentColor"/></g></symbol><symbol id="svg-folder-shared-upload" viewBox="0 0 15 19"><title>folder-shared-upload</title><g fill-rule="evenodd"><path d="M5 16H2c-1.276 0-2-.724-2-2V4c0-1.276.724-2 2-2h3c2 0 2 2 2 2h6c1.276 0 2 .724 2 2v8c0 1.276-.724 2-2 2h-3v-1h3c1 0 1-1 1-1V6c0-1-1-1-1-1H7S6 5 6 4 5 3 5 3H2S1 3 1 4v10s0 1 1 1h3v1z"/><path d="M5.333 8.5h-1.86c-.5 0-.473.5-.473 1v1.692l.75-.865V9.5H4v.538L5.333 8.5zm4.334 0H11.5c.5 0 .5.5.5 1v1.693l-.75-.866V9.5H11v.539L9.666 8.5zM5 8a1 1 0 1 0 0-2 1 1 0 0 0 0 2zm5 0a1 1 0 1 0 0-2 1 1 0 0 0 0 2zM9 18H6v-5H3.5l4-4.5 4 4.5H9z"/></g></symbol><symbol id="svg-folder-shared" viewBox="0 0 15 19"><title>folder-shared</title><g fill-rule="evenodd"><path d="M2 2C.724 2 0 2.724 0 4v10c0 1.276.724 2 2 2h11c1.276 0 2-.724 2-2V6c0-1.276-.724-2-2-2H7s0-2-2-2H2zm0 1h3s1 0 1 1 1 1 1 1h6s1 0 1 1v8s0 1-1 1H2c-1 0-1-1-1-1V4c0-1 1-1 1-1z"/><path d="M5 8a1 1 0 1 0 0-2 1 1 0 0 0 0 2zm-1.526.5H6.5C7 8.5 7 9 7 9.5V12h-.75V9.5H6V14h-.75v-2h-.5v2H4V9.5h-.25V12H3V9.5c0-.5-.026-1 .474-1zM10 8a1 1 0 1 0 0-2 1 1 0 0 0 0 2zm-1.526.5H11.5c.5 0 .5.5.5 1V12h-.75V9.5H11V14h-.75v-2h-.5v2H9V9.5h-.25V12H8V9.5c0-.5-.027-1 .473-1z"/></g></symbol><symbol id="svg-folder-upload" viewBox="0 0 15 19"><title>folder-upload</title><g fill-rule="evenodd"><path d="M5 16H2c-1.276 0-2-.724-2-2V4c0-1.276.724-2 2-2h3c2 0 2 2 2 2h6c1.276 0 2 .724 2 2v8c0 1.276-.724 2-2 2h-3v-1h3c1 0 1-1 1-1V6c0-1-1-1-1-1H7S6 5 6 4 5 3 5 3H2S1 3 1 4v10s0 1 1 1h3v1z"/><path d="M9 18H6v-5H3.5l4-4.5 4 4.5H9z"/></g></symbol><symbol id="svg-folder" viewBox="0 0 15 19"><title>folder</title><path d="M2 2C.724 2 0 2.724 0 4v10c0 1.276.724 2 2 2h11c1.276 0 2-.724 2-2V6c0-1.276-.724-2-2-2H7s0-2-2-2H2zm0 1h3s1 0 1 1 1 1 1 1h6s1 0 1 1v8s0 1-1 1H2c-1 0-1-1-1-1V4c0-1 1-1 1-1z" fill-rule="evenodd"/></symbol><symbol id="svg-grid" viewBox="0 0 16 13"><title>grid</title><path d="M1 1h4v3H1V1zm5 0h4v3H6V1zm5 0h4v3h-4V1zM1 5h4v3H1V5zm5 0h4v3H6V5zm5 0h4v3h-4V5zM1 9h4v3H1V9zm5 0h4v3H6V9zm5 0h4v3h-4V9z" fill-rule="evenodd"/></symbol><symbol id="svg-multiple" viewBox="0 0 10 12"><title>multiple</title><g fill-rule="evenodd"><path d="M8 8h2V0H4v2h1V1h4v6H8v1z"/><path d="M6 10h2V2H2v2h1V3h4v6H6v1z"/><path d="M1 11h4V5H1v6zM0 4h6v8H0V4z"/></g></symbol><symbol id="svg-rows" viewBox="0 0 16 13"><title>rows</title><path d="M5 1h10v3H5V1zM1 1h3v3H1V1zm0 4h3v3H1V5zm0 4h3v3H1V9zm4-4h10v3H5V5zm0 4h10v3H5V9z" fill-rule="evenodd"/></symbol><symbol id="svg-select-all" viewBox="0 0 15 15"><title>select-all</title><g fill-rule="evenodd"><path d="M0 1h1v1H0V1zm3-1h1v1H3V0zm2 0h1v1H5V0zm2 0h1v1H7V0zm2 0h1v1H9V0zm2 0h1v1h-1V0zm2 0h2v1h-2V0zM0 0h2v1H0V0zm0 14h2v1H0v-1zm5 0h1v1H5v-1zm-2 0h1v1H3v-1zm4 0h1v1H7v-1zm2 0h1v1H9v-1zm2 0h1v1h-1v-1zm2 0h2v1h-2v-1zm1-13h1v1h-1V1zm0 2h1v1h-1V3zm0 2h1v1h-1V5zm0 2h1v1h-1V7zm0 2h1v1h-1V9zm0 2h1v1h-1v-1zM0 3h1v1H0V3zm0 2h1v1H0V5zm0 2h1v1H0V7zm0 2h1v1H0V9zm0 2h1v1H0v-1zm0 2h1v1H0v-1zm14 0h1v1h-1v-1zM3 3h4v4H3zM8 3h4v4H8zM8 8h4v4H8zM3 8h4v4H3z"/></g></symbol><symbol id="svg-table" viewBox="0 0 15 13"><title>table</title><path d="M6 6v2h3V6H6zm0-1V3H5v2H2v1h3v2H2v1h3v2h1V9h3v2h1V9h3v3h1V3h-1v2h-3V3H9v2H6zm7 1v2h-3V6h3zM1 3h1v9H1V3zm1 8h11v1H2v-1zM1 1h13v2H1V1z" fill-rule="evenodd"/></symbol><symbol id="svg-tag-o" viewBox="0 0 13 13"><title>tag-o</title><g fill-rule="evenodd"><path d="M1.065 1.258c.02-.064.027 2.825.027 3.112 0 .5.13 1.086.356 1.324.523.54 6.142 6.155 6.343 6.343l-.072-.061a.388.388 0 0 0-.048-.034.24.24 0 0 0 .058.017.197.197 0 0 0-.062.03c.17-.14 3.325-3.254 3.692-3.632.195-.202.573-.611.573-.611-.036.054-.13-.166-.215-.256-.167-.175-5.84-5.86-5.84-5.86a6.77 6.77 0 0 0-.48-.304c-.225-.117-.417-.179-.481-.179-.26 0-.686-.007-1.847-.027-1.133-.02-1.572-.028-1.813-.028a.978.978 0 0 0-.191.166zM4.916.054c.603 0 1.45.544 1.693.762.195.217 5.96 5.87 6.227 6.257.28.374.143 1.026 0 1.25-.13.265-4.038 4.097-4.479 4.462-.488.396-1.116.152-1.31 0-.189-.174-5.79-5.746-6.392-6.365C.055 5.789 0 4.675 0 4.352V1.088C0 .652.601 0 1.256 0c.602 0 3.061.054 3.66.054z"/><path d="M3.436 3a.436.436 0 1 0-.872 0 .436.436 0 0 0 .872 0zM2 3a1 1 0 1 1 2 0 1 1 0 0 1-2 0z"/></g></symbol><symbol id="svg-trash" viewBox="0 0 13 13"><title>trash</title><g fill-rule="evenodd"><path d="M1 11.5c0 .634.3 1.084.776 1.322.27.135.528.178.724.178h8c.634 0 1.084-.3 1.322-.776.135-.27.178-.528.178-.724V3h.5V2H.5v1H1v8.5zM2 3h9v8.5c0 .054-.02.17-.072.276-.075.15-.187.224-.428.224h-8a.702.702 0 0 1-.276-.072C2.074 11.853 2 11.74 2 11.5V3z"/><path d="M4.61 1.621C4.717 1.194 4.862 1 5 1h3c.138 0 .283.194.39.621.032.127.055.256.073.379H4.537c.018-.123.041-.252.073-.379zM3.5 2.5V3h6v-.5a4.84 4.84 0 0 0-.14-1.121C9.154.556 8.737 0 8 0H5c-.737 0-1.154.556-1.36 1.379a4.84 4.84 0 0 0-.123.767A4.505 4.505 0 0 0 3.5 2.5zM7 4v7h1V4H7zm2 0v7h1V4H9zM5 4v7h1V4H5zM3 4v7h1V4H3z"/></g></symbol></svg>