<?xml version="1.0" encoding="UTF-8"?>
<svg width="14px" height="14px" viewBox="0 0 14 14" version="1.1" xmlns="http://www.w3.org/2000/svg" xmlns:xlink="http://www.w3.org/1999/xlink">
    <title>info-circle-ng</title>
    <g id="info-circle-ng" stroke="none" stroke-width="1" fill="none" fill-rule="evenodd">
        <path d="M7,13 C10.3137085,13 13,10.3137085 13,7 C13,3.6862915 10.3137085,1 7,1 C3.6862915,1 1,3.6862915 1,7 C1,10.3137085 3.6862915,13 7,13 Z M7,14 C3.13400675,14 0,10.8659932 0,7 C0,3.13400675 3.13400675,0 7,0 C10.8659932,0 14,3.13400675 14,7 C14,10.8659932 10.8659932,14 7,14 Z" id="ring" fill="#023979" fill-rule="nonzero"></path>
        <path d="M8,6 L8,11 L6,11 L6,6 L8,6 Z M8,3 L8,5 L6,5 L6,3 L8,3 Z" id="i" fill="#023979"></path>
    </g>
</svg>