
<?xml version="1.0" encoding="utf-8"?>
<!-- Generator: Adobe Illustrator 19.0.0, SVG Export Plug-In . SVG Version: 6.00 Build 0)  -->
<svg version="1.1" id="Layer_1" xmlns="http://www.w3.org/2000/svg" xmlns:xlink="http://www.w3.org/1999/xlink" x="0px" y="0px"
	 viewBox="-27 -143.2 512 512" style="enable-background:new -27 -143.2 512 512;" xml:space="preserve">
<style type="text/css">
	.st0{fill:#3399FF;}
	.st1{display:none;fill:#3399FF;}
</style>
<path class="st0" d="M363.3,200.7c-6.2-15-15.1-28.3-26.6-39.8l-57.6-57.6c-4.6-4.6-8.2-10-10.7-16.1c-2.5-6-3.8-12.4-3.8-18.9V-4.1
	h69.8L228-110.5L121.7-4.1h69.8v72.4c0,6.5-1.3,12.9-3.8,18.9c-2.5,6-6.1,11.5-10.7,16.1l-57.6,57.6c-11.5,11.5-20.4,24.8-26.6,39.8
	c-6.2,15-9.3,30.8-9.3,47V320h73.2v-72.4c0-6.5,1.3-12.9,3.8-19c2.5-6,6.1-11.4,10.7-16l57-56.9l56.9,56.9c4.6,4.6,8.2,10,10.7,16
	c2.5,6,3.8,12.4,3.8,19V320h73.2v-72.4C372.6,231.4,369.5,215.6,363.3,200.7z"/>
<path class="st1" d="M229-144.2c-141.2,0-256,114.8-256,256s114.8,256,256,256s256-114.8,256-256S370.2-144.2,229-144.2z M229,323.9
	c-117,0-212.1-95.2-212.1-212.1S112-100.3,229-100.3S441.1-5.2,441.1,111.8S346,323.9,229,323.9z"/>
</svg>
