
<?xml version="1.0" encoding="utf-8"?>
<!-- Generator: Adobe Illustrator 19.0.0, SVG Export Plug-In . SVG Version: 6.00 Build 0)  -->
<svg version="1.1" id="Capa_1" xmlns="http://www.w3.org/2000/svg" xmlns:xlink="http://www.w3.org/1999/xlink" x="0px" y="0px"
	 viewBox="-27 -143.2 512 512" style="enable-background:new -27 -143.2 512 512;" xml:space="preserve">
<style type="text/css">
	.st0{fill:#CC3333;}
</style>
<g>
	<path class="st0" d="M229-143.2c-141.2,0-256,114.8-256,256s114.8,256,256,256s256-114.8,256-256S370.2-143.2,229-143.2z
		 M229,324.9c-117,0-212.1-95.2-212.1-212.1S112-99.3,229-99.3S441.1-4.2,441.1,112.8S346,324.9,229,324.9z"/>
	<path class="st0" d="M328.1,13.7c-8.6-8.6-22.5-8.6-31,0l-68,68l-68-68c-8.6-8.6-22.5-8.6-31,0s-8.6,22.5,0,31l68,68l-68,68
		c-8.6,8.6-8.6,22.5,0,31c4.3,4.3,9.9,6.4,15.5,6.4c5.6,0,11.2-2.1,15.5-6.4l68-68l68,68c4.3,4.3,9.9,6.4,15.5,6.4
		c5.6,0,11.2-2.1,15.5-6.4c8.6-8.6,8.6-22.5,0-31l-68-68l68-68C336.6,36.2,336.6,22.3,328.1,13.7z"/>
</g>
</svg>
