<?xml version="1.0" encoding="UTF-8"?>
<svg width="12px" height="12px" viewBox="0 0 12 12" version="1.1" xmlns="http://www.w3.org/2000/svg" xmlns:xlink="http://www.w3.org/1999/xlink">
    <!-- Generator: Sketch 42 (36781) - http://www.bohemiancoding.com/sketch -->
    <title>reset</title>
    <desc>Created with Sketch.</desc>
    <defs></defs>
    <g id="Page-1" stroke="none" stroke-width="1" fill="none" fill-rule="evenodd">
        <g id="reset" fill="#023979">
            <path d="M4,-2.77555756e-17 L4,6 L2.49800181e-16,3 L4,-2.77555756e-17 Z M4,2 C4,2 6,2 9,2 C12,2 12,5 12,5 L12,8 C12,11 9,11 9,11 L2,11 L2,9 C2,9 8,9 9,9 C10,9 10,8 10,8 C10,8 10,6 10,5 C10,4 9,4 9,4 L4,4 L4,2 Z" id="Combined-Shape"></path>
        </g>
    </g>
</svg>