<?xml version="1.0" encoding="UTF-8"?>
<svg width="16px" height="13px" viewBox="0 0 16 13" version="1.1" xmlns="http://www.w3.org/2000/svg" xmlns:xlink="http://www.w3.org/1999/xlink">
    <!-- Generator: Sketch 41.1 (35376) - http://www.bohemiancoding.com/sketch -->
    <title>rows</title>
    <desc>Created with Sketch.</desc>
    <defs></defs>
    <g id="Page-1" stroke="none" stroke-width="1" fill="none" fill-rule="evenodd">
        <g id="rows" fill="#023979">
            <path d="M5,1 L15,1 L15,4 L5,4 L5,1 Z M1,1 L4,1 L4,4 L1,4 L1,1 Z M1,5 L4,5 L4,8 L1,8 L1,5 Z M1,9 L4,9 L4,12 L1,12 L1,9 Z M5,5 L15,5 L15,8 L5,8 L5,5 Z M5,9 L15,9 L15,12 L5,12 L5,9 Z"></path>
        </g>
    </g>
</svg>