<?xml version="1.0" encoding="UTF-8"?>
<svg id="Ebene_4_Kopie" data-name="Ebene 4 Kopie" xmlns="http://www.w3.org/2000/svg" width="4.49053mm" height="4.98609mm" viewBox="0 0 17 16">
  <defs></defs>
  <path fill="#000000" stroke-width="0" d="M11.73315,12.56165l-2.47357-2.47351c.24048-.34717.41925-.71472.56268-1.09393h-2.04767c-.11865.17438-.25702.3407-.41528.49896-.6322.6322-1.39301.9483-2.28241.9483s-1.65027-.3161-2.28247-.9483-.9483-1.39301-.9483-2.28247c0-.8501.29736-1.57922.875-2.19434v-2.27643c-.46057.24048-.88428.52094-1.2392.87585-.45428.45428-.81488.99518-1.08173,1.62256-.26685.62744-.40021,1.28485-.40021,1.97235s.13336,1.34497.40021,1.97235c.26685.62744.62744,1.16827,1.08173,1.62262.45435.45435.99518.81488,1.62262,1.08173.62738.26685,1.28485.40027,1.97235.40027,1.05768,0,2.01678-.2981,2.87738-.89423l2.47357,2.46631c.17303.18268.3894.27405.64905.27405.25,0,.46631-.09137.64899-.27405.18274-.18268.27405-.39905.27405-.64905,0-.25476-.08893-.47113-.26678-.64905Z"/>
  <g id="Page-1">
    <g id="folder-shared">
      <path id="body" fill="#000000" fill-rule="evenodd" stroke-width="0" d="M5.72882,2c.55228,0,1-.44772,1-1s-.44772-1-1-1-1,.44772-1,1,.44772,1,1,1ZM4.20249,2.5h3.02711c.5,0,.49923.5.49923,1v2.5h-.75v-2.5h-.25v4.5h-.75v-2h-.5v2h-.75V3.5h-.25v2.5h-.75v-2.5c0-.5-.02633-1,.47367-1Z"/>
      <path id="body-copy" fill="#000000" fill-rule="evenodd" stroke-width="0" d="M10.72906,2c.55228,0,1-.44772,1-1s-.44772-1-1-1-1,.44772-1,1,.44771,1,1,1ZM9.20273,2.5h3.02711c.5,0,.49923.5.49923,1v2.5h-.75v-2.5h-.25v4.5h-.75v-2h-.5v2h-.75V3.5h-.25v2.5h-.75v-2.5c0-.5-.02633-1,.47367-1Z"/>
    </g>
  </g>
</svg>