<?xml version="1.0" encoding="UTF-8"?>
<svg width="14px" height="14px" viewBox="0 0 14 14" version="1.1" xmlns="http://www.w3.org/2000/svg" xmlns:xlink="http://www.w3.org/1999/xlink">
    <!-- Generator: Sketch 43.1 (39012) - http://www.bohemiancoding.com/sketch -->
    <title>spinner</title>
    <desc>Created with Sketch.</desc>
    <defs></defs>
    <g id="Page-1" stroke="none" stroke-width="1" fill="none" fill-rule="evenodd">
        <g id="spinner" fill="#023979">
            <path d="M4.1093799,10.8906237 C4.1093799,10.3359355 3.66406687,9.89062249 3.10937871,9.89062249 C2.56250305,9.89062249 2.10937751,10.3359355 2.10937751,10.8906237 C2.10937751,11.4374993 2.56250305,11.8906249 3.10937871,11.8906249 C3.66406687,11.8906249 4.1093799,11.4374993 4.1093799,10.8906237 Z M8.00000954,12.5000006 C8.00000954,11.9453124 7.55469651,11.4999994 7.00000834,11.4999994 C6.44532018,11.4999994 6.00000715,11.9453124 6.00000715,12.5000006 C6.00000715,13.0546888 6.44532018,13.5000018 7.00000834,13.5000018 C7.55469651,13.5000018 8.00000954,13.0546888 8.00000954,12.5000006 Z M2.50000298,6.99999404 C2.50000298,6.44530588 2.05468995,5.99999285 1.50000179,5.99999285 C0.945313627,5.99999285 0.500000596,6.44530588 0.500000596,6.99999404 C0.500000596,7.5546822 0.945313627,7.99999523 1.50000179,7.99999523 C2.05468995,7.99999523 2.50000298,7.5546822 2.50000298,6.99999404 Z M11.8906392,10.8906237 C11.8906392,10.3359355 11.4375136,9.89062249 10.890638,9.89062249 C10.3359498,9.89062249 9.89063679,10.3359355 9.89063679,10.8906237 C9.89063679,11.4374993 10.3359498,11.8906249 10.890638,11.8906249 C11.4375136,11.8906249 11.8906392,11.4374993 11.8906392,10.8906237 Z M4.3593802,3.1093644 C4.3593802,2.42186358 3.79687953,1.85936291 3.10937871,1.85936291 C2.42187789,1.85936291 1.85937722,2.42186358 1.85937722,3.1093644 C1.85937722,3.79686522 2.42187789,4.35936589 3.10937871,4.35936589 C3.79687953,4.35936589 4.3593802,3.79686522 4.3593802,3.1093644 Z M13.5000161,6.99999404 C13.5000161,6.44530588 13.0547031,5.99999285 12.5000149,5.99999285 C11.9453267,5.99999285 11.5000137,6.44530588 11.5000137,6.99999404 C11.5000137,7.5546822 11.9453267,7.99999523 12.5000149,7.99999523 C13.0547031,7.99999523 13.5000161,7.5546822 13.5000161,6.99999404 Z M8.50001013,1.49998748 C8.50001013,0.671861496 7.82813433,-1.43051147e-05 7.00000834,-1.43051147e-05 C6.17188236,-1.43051147e-05 5.50000656,0.671861496 5.50000656,1.49998748 C5.50000656,2.32811347 6.17188236,2.99998927 7.00000834,2.99998927 C7.82813433,2.99998927 8.50001013,2.32811347 8.50001013,1.49998748 Z M12.6406401,3.1093644 C12.6406401,2.14842576 11.8515766,1.35936232 10.890638,1.35936232 C9.92188683,1.35936232 9.1406359,2.14842576 9.1406359,3.1093644 C9.1406359,4.07811556 9.92188683,4.85936649 10.890638,4.85936649 C11.8515766,4.85936649 12.6406401,4.07811556 12.6406401,3.1093644 Z" id="spinner---FontAwesome"></path>
        </g>
    </g>
</svg>