<?xml version="1.0" encoding="UTF-8"?>
<svg width="15px" height="13px" viewBox="0 0 15 13" version="1.1" xmlns="http://www.w3.org/2000/svg" xmlns:xlink="http://www.w3.org/1999/xlink">
    <!-- Generator: Sketch 41.1 (35376) - http://www.bohemiancoding.com/sketch -->
    <title>table</title>
    <desc>Created with Sketch.</desc>
    <defs></defs>
    <g id="Page-1" stroke="none" stroke-width="1" fill="none" fill-rule="evenodd">
        <g id="table" fill="#023979">
            <path d="M6,6 L6,8 L9,8 L9,6 L6,6 Z M6,5 L6,3 L5,3 L5,5 L2,5 L2,6 L5,6 L5,8 L2,8 L2,9 L5,9 L5,11 L6,11 L6,9 L9,9 L9,11 L10,11 L10,9 L13,9 L13,12 L14,12 L14,3 L13,3 L13,5 L10,5 L10,3 L9,3 L9,5 L6,5 Z M13,6 L13,8 L10,8 L10,6 L13,6 Z M1,3 L2,3 L2,12 L1,12 L1,3 Z M2,11 L13,11 L13,12 L2,12 L2,11 Z M1,1 L14,1 L14,3 L1,3 L1,1 Z"></path>
        </g>
    </g>
</svg>