<?xml version="1.0" encoding="UTF-8"?>
<svg width="13px" height="13px" viewBox="0 0 13 13" version="1.1" xmlns="http://www.w3.org/2000/svg" xmlns:xlink="http://www.w3.org/1999/xlink">
    <!-- Generator: Sketch 41.1 (35376) - http://www.bohemiancoding.com/sketch -->
    <title>tag-o</title>
    <desc>Created with Sketch.</desc>
    <defs></defs>
    <g id="Page-1" stroke="none" stroke-width="1" fill="none" fill-rule="evenodd">
        <g id="tag-o" fill="#023979">
            <path d="M1.0647097,1.25750243 C1.08523357,1.19411902 1.09243697,4.0830203 1.09243697,4.3697479 C1.09243697,4.87027114 1.22263107,5.45593969 1.44801954,5.69353283 C1.97098902,6.23416154 7.58952766,11.8491081 7.79115556,12.0370805 L7.71932945,11.9757042 C7.69739694,11.9585465 7.68188846,11.9484191 7.67063755,11.9421425 C7.69297673,11.9512267 7.71283853,11.9565919 7.72895632,11.9586329 C7.70410158,11.9665563 7.68149255,11.9774859 7.66674474,11.9895124 C7.83609076,11.8488906 10.9919718,8.73541589 11.3590639,8.35690488 C11.5544844,8.15540555 11.9317557,7.74562258 11.9317557,7.74562258 C11.8957964,7.80019521 11.8020537,7.57979915 11.7170866,7.49048984 C11.5499588,7.31482094 5.87746017,1.63044512 5.87746017,1.63044512 C5.85788379,1.61278347 5.50935645,1.38363278 5.39703827,1.32569288 C5.17176976,1.20948698 4.97951315,1.14705369 4.91587736,1.14705882 C4.65654925,1.14703769 4.2300688,1.14029826 3.06877038,1.119574 C1.93579916,1.09935531 1.49693094,1.09243697 1.25630252,1.09243697 C1.20584153,1.11738953 1.07494862,1.23860194 1.0647097,1.25750243 Z M4.91596639,0.0544048658 C5.51943306,0.0543562628 6.36647477,0.597918891 6.6092437,0.816072987 C6.80365758,1.03276899 12.569006,6.68582032 12.8361345,7.07263255 C13.1154845,7.446808 12.9788649,8.09908316 12.8361345,8.32394446 C12.7056256,8.58828952 8.79830419,12.4204061 8.35714286,12.7851435 C7.8692907,13.1813937 7.2408404,12.9367905 7.04621849,12.7851435 C6.85830544,12.610653 1.2569006,7.03913603 0.655462185,6.41977416 C0.0546478521,5.78894199 2.25514052e-17,4.6746386 0,4.35238926 C0,4.02236345 2.69054247e-15,1.52197536 0,1.08809732 C0,0.652275154 0.601126373,0 1.25630252,0 C1.85802697,0 4.31718031,0.0543562628 4.91596639,0.0544048658 Z" id="Path-3"></path>
            <path d="M3.43589744,3 C3.43589744,2.75926049 3.24073951,2.56410256 3,2.56410256 C2.75926049,2.56410256 2.56410256,2.75926049 2.56410256,3 C2.56410256,3.24073951 2.75926049,3.43589744 3,3.43589744 C3.24073951,3.43589744 3.43589744,3.24073951 3.43589744,3 Z M2,3 C2,2.44771525 2.44771525,2 3,2 C3.55228475,2 4,2.44771525 4,3 C4,3.55228475 3.55228475,4 3,4 C2.44771525,4 2,3.55228475 2,3 Z" id="Oval-2"></path>
        </g>
    </g>
</svg>