
<?xml version="1.0" encoding="UTF-8"?>
<svg width="13px" height="13px" viewBox="0 0 13 13" version="1.1" xmlns="http://www.w3.org/2000/svg" xmlns:xlink="http://www.w3.org/1999/xlink">
    <!-- Generator: Sketch 41.2 (35397) - http://www.bohemiancoding.com/sketch -->
    <title>trash</title>
    <desc>Created with Sketch.</desc>
    <defs></defs>
    <g id="Page-1" stroke="none" stroke-width="1" fill="none" fill-rule="evenodd">
        <g id="trash" fill="#023979">
            <path d="M1,11.5 C1,12.1339131 1.30010387,12.5840689 1.7763932,12.8222136 C2.04579583,12.9569149 2.30430637,13 2.5,13 L10.5,13 C11.1339131,13 11.5840689,12.6998961 11.8222136,12.2236068 C11.9569149,11.9542042 12,11.6956936 12,11.5 L12,3 L12.5,3 L12.5,2 L0.5,2 L0.5,3 L1,3 L1,11.5 Z M2,3 L11,3 L11,11.5 C11,11.5543064 10.9805851,11.6707958 10.9277864,11.7763932 C10.8534311,11.9251039 10.7410869,12 10.5,12 L2.5,12 C2.44569363,12 2.32920417,11.9805851 2.2236068,11.9277864 C2.07489613,11.8534311 2,11.7410869 2,11.5 L2,3 Z" id="Path-8"></path>
            <path d="M4.61007125,1.62126781 C4.71691748,1.19388289 4.86232965,1 5,1 L8,1 C8.13767035,1 8.28308252,1.19388289 8.38992875,1.62126781 C8.42173312,1.74848529 8.445441,1.87741842 8.4625422,2 L4.5374578,2 C4.554559,1.87741842 4.57826688,1.74848529 4.61007125,1.62126781 Z M3.5,2.5 L3.5,3 L9.5,3 L9.5,2.5 C9.5,2.42445959 9.49560894,2.30151005 9.48264788,2.14597726 C9.46103762,1.88665418 9.42201643,1.62651292 9.36007125,1.37873219 C9.15441748,0.55611711 8.73732965,0 8,0 L5,0 C4.26267035,0 3.84558252,0.55611711 3.63992875,1.37873219 C3.57798357,1.62651292 3.53896238,1.88665418 3.51735212,2.14597726 C3.50439106,2.30151005 3.5,2.42445959 3.5,2.5 Z" id="Path-9"></path>
            <path d="M7,4 L7,11 L8,11 L8,4 L7,4 Z M9,4 L9,11 L10,11 L10,4 L9,4 Z M5,4 L5,11 L6,11 L6,4 L5,4 Z M3,4 L3,11 L4,11 L4,4 L3,4 Z" id="Combined-Shape"></path>
        </g>
    </g>
</svg>