<?xml version="1.0" encoding="UTF-8"?>
<svg width="14px" height="14px" viewBox="0 0 14 14" version="1.1" xmlns="http://www.w3.org/2000/svg" xmlns:xlink="http://www.w3.org/1999/xlink">
    <!-- Generator: Sketch 45 (43475) - http://www.bohemiancoding.com/sketch -->
    <title>typo3</title>
    <desc>Created with Sketch.</desc>
    <defs></defs>
    <g id="Page-1" stroke="none" stroke-width="1" fill="none" fill-rule="evenodd">
        <g id="typo3" fill-rule="nonzero" fill="#023979">
            <path d="M10.455849,9.64809769 C8.89624569,12.1503507 7.00004361,14 5.87585554,14 C3.4455949,14 0,6.67391416 0,3.44568074 C0,2.93810014 0.108853802,2.53920027 0.29004606,2.28515038 C1.12453419,1.26964306 3.73598708,0.471497214 5.91202477,0.217793441 C5.65780182,0.435327986 5.47695568,0.689204818 5.47695568,1.45083531 C5.47695568,3.51836532 8.08806245,9.73047354 9.86571945,9.73047354 C10.0823887,9.73047354 10.2480057,9.7093604 10.455849,9.64809769 Z M9.32117355,0 C11.5698958,0 13.8189642,0.362730634 13.8189642,1.63211479 C13.8189642,4.20739846 12.1868494,7.32660502 11.3525343,7.32660502 C9.86561562,7.32660502 8.01579322,3.19206419 8.01579322,1.12453419 C8.01579322,0.181538375 8.37852385,0 9.32117355,0 Z" id="Combined-Shape"></path>
        </g>
    </g>
</svg>